HIERARCHY
ROOT root
{
	OFFSET 0.000000 0.000000 0.000000
	CHANNELS 6 Xposition Yposition Zposition Zrotation Yrotation Xrotation
	JOINT lhip
	{
		OFFSET 0.058581 -0.082280 -0.017664
		CHANNELS 3 Zrotation Yrotation Xrotation
		JOINT lknee
		{
			OFFSET 0.043451 -0.386469 0.008037
			CHANNELS 3 Zrotation Yrotation Xrotation
			JOINT lankle
			{
				OFFSET -0.014790 -0.426874 -0.037428
				CHANNELS 3 Zrotation Yrotation Xrotation
				JOINT ltoe
				{
					OFFSET 0.041054 -0.060286 0.122042
					CHANNELS 3 Zrotation Yrotation Xrotation
					End Site
					{
						OFFSET 0.000000 0.000000 0.000000
					}
				}
			}
		}
	}
	JOINT rhip
	{
		OFFSET -0.060310 -0.090513 -0.013543
		CHANNELS 3 Zrotation Yrotation Xrotation
		JOINT rknee
		{
			OFFSET -0.043257 -0.383688 -0.004843
			CHANNELS 3 Zrotation Yrotation Xrotation
			JOINT rankle
			{
				OFFSET 0.019056 -0.420046 -0.034562
				CHANNELS 3 Zrotation Yrotation Xrotation
				JOINT rtoe
				{
					OFFSET -0.034840 -0.062106 0.130323
					CHANNELS 3 Zrotation Yrotation Xrotation
					End Site
					{
						OFFSET 0.000000 0.000000 0.000000
					}
				}
			}
		}
	}
	JOINT lowerback
	{
		OFFSET 0.004439 0.124404 -0.038385
		CHANNELS 3 Zrotation Yrotation Xrotation
		JOINT upperback
		{
			OFFSET 0.004488 0.137956 0.026820
			CHANNELS 3 Zrotation Yrotation Xrotation
			JOINT chest
			{
				OFFSET -0.002265 0.056032 0.002855
				CHANNELS 3 Zrotation Yrotation Xrotation
				JOINT lowerneck
				{
					OFFSET -0.013390 0.211636 -0.033468
					CHANNELS 3 Zrotation Yrotation Xrotation
					JOINT upperneck
					{
						OFFSET 0.010113 0.088937 0.050410
						CHANNELS 3 Zrotation Yrotation Xrotation
						End Site
						{
							OFFSET 0.000000 0.000000 0.000000
						}
					}
				}
				JOINT lclavicle
				{
					OFFSET 0.071702 0.114000 -0.018898
					CHANNELS 3 Zrotation Yrotation Xrotation
					JOINT lshoulder
					{
						OFFSET 0.122921 0.045205 -0.019046
						CHANNELS 3 Zrotation Yrotation Xrotation
						JOINT lelbow
						{
							OFFSET 0.255332 -0.015649 -0.022946
							CHANNELS 3 Zrotation Yrotation Xrotation
							JOINT lwrist
							{
								OFFSET 0.265709 0.012698 -0.007375
								CHANNELS 3 Zrotation Yrotation Xrotation
								End Site
								{
									OFFSET 0.000000 0.000000 0.000000
								}
							}
						}
					}
				}
				JOINT rclavicle
				{
					OFFSET -0.082954 0.112472 -0.023707
					CHANNELS 3 Zrotation Yrotation Xrotation
					JOINT rshoulder
					{
						OFFSET -0.113228 0.046853 -0.008472
						CHANNELS 3 Zrotation Yrotation Xrotation
						JOINT relbow
						{
							OFFSET -0.260127 -0.014369 -0.031269
							CHANNELS 3 Zrotation Yrotation Xrotation
							JOINT rwrist
							{
								OFFSET -0.269108 0.006794 -0.006027
								CHANNELS 3 Zrotation Yrotation Xrotation
								End Site
								{
									OFFSET 0.000000 0.000000 0.000000
								}
							}
						}
					}
				}
			}
		}
	}
}
MOTION
Frames: 8
Frame Time: 0.033333
-1.201468 1.380269 0.998060 -65.788013 -0.701875 85.907864 -1.002275 0.005203 -3.912398 -2.208912 0.906629 18.433868 4.295363 13.370944 -16.391135 0.000000 -0.000000 0.000000 0.021983 -5.904225 0.444801 1.791883 -7.608420 13.423263 0.785729 -9.196298 -12.216785 0.000000 -0.000000 0.000000 2.868784 2.192753 15.646742 -0.076556 0.916237 -0.421530 -0.034171 0.963415 3.804587 -2.501157 10.040081 5.316937 -5.840016 7.607943 16.998804 -26.636961 3.938719 2.880547 -57.263938 -4.485955 7.989648 8.650026 -25.849276 7.665716 -6.908056 -3.633728 -5.168895 28.091103 4.364615 4.480730 55.180388 11.185895 13.613529 -11.937179 20.690870 -6.751727 3.756044 3.868972 -5.594501 
-1.203348 1.379931 0.997622 -62.053331 -0.844937 85.709258 -0.499477 2.330185 -3.583782 -2.243589 5.436112 17.766956 4.658547 14.761633 -15.312325 0.000000 -0.000000 0.000000 -0.149949 -6.470185 1.077316 1.709826 -9.793928 13.304052 0.504303 -9.962480 -12.477954 0.000000 -0.000000 0.000000 2.885562 2.075613 15.301984 -0.025503 1.206254 -0.120439 0.068504 1.197682 4.001088 -2.493448 9.524185 5.876976 -5.806093 7.688663 17.336185 -26.640580 4.180044 3.081800 -57.009838 -4.904606 7.445621 8.279983 -27.612503 7.090586 -7.148052 -3.853413 -5.514020 28.187333 4.371935 4.908106 54.782050 11.333130 13.240236 -11.922664 21.203260 -7.465632 3.952458 4.112133 -5.415482 
-1.205258 1.378366 0.996588 -58.196384 -0.975532 85.574705 -0.085803 3.977321 -2.764155 -2.952584 6.703255 16.563199 3.374207 13.662706 -12.784865 0.000000 -0.000000 0.000000 -0.319065 -7.387574 1.324461 1.355374 -11.764600 13.845801 0.347597 -10.557515 -13.119592 0.000000 -0.000000 0.000000 2.902811 1.800797 15.538621 0.038999 1.278623 -0.476515 0.142243 1.467182 3.699515 -2.154541 8.855042 6.701344 -5.727949 7.628116 17.183844 -26.661011 4.688880 3.086267 -56.802645 -4.723385 7.153131 8.068034 -29.402746 7.434535 -7.061163 -4.185339 -5.813429 27.773352 4.043165 4.956523 54.839324 11.052733 12.814257 -11.818458 21.504733 -7.411253 3.854764 4.254679 -5.195469 
-1.206186 1.375861 0.995236 -53.883359 -1.494123 85.490472 -0.617328 4.656819 -1.763287 -3.424830 5.921118 14.095173 3.688346 12.066040 -11.590589 0.000000 -0.000000 0.000000 -0.954743 -8.161453 1.215698 0.800342 -13.624128 15.070950 0.689693 -11.614971 -13.904217 0.000000 -0.000000 0.000000 2.737499 1.630025 15.615900 -0.069547 1.267785 -0.846928 0.075108 1.346798 3.465328 -1.956324 8.732539 7.091459 -5.516423 7.431948 17.430981 -26.737298 4.879782 3.568871 -56.309772 -4.945265 6.962975 7.867048 -31.046276 7.205972 -6.680834 -4.511488 -5.991720 27.762624 3.683880 4.802205 54.561656 10.413064 12.556936 -12.032294 21.995229 -8.015501 3.818777 4.306735 -4.879229 
-1.205991 1.371958 0.993668 -49.439430 -1.803457 85.178438 -1.427081 4.145438 -0.827829 -3.444626 3.428768 12.022311 3.835944 11.183593 -11.117330 0.000000 -0.000000 0.000000 -1.376146 -8.567085 0.642924 0.065815 -15.179781 17.434706 0.733821 -13.400597 -14.551028 0.000000 -0.000000 0.000000 2.703747 1.306635 15.669254 -0.024846 1.213362 -1.043599 0.106200 1.057128 3.410810 -1.665654 8.298704 6.884918 -5.695609 7.481316 17.747581 -26.669698 4.879093 3.603106 -56.462237 -5.176413 7.086585 7.804118 -31.935706 7.171889 -6.542041 -4.912966 -6.683470 27.360573 3.660219 4.726359 53.975070 9.900698 12.525654 -12.148751 22.151231 -8.093624 4.197811 4.166086 -4.822616 
-1.205545 1.367711 0.992544 -45.102688 -2.097649 84.601339 -2.359443 3.023819 0.007376 -3.090166 0.397013 11.550695 3.650649 9.830804 -11.245806 0.000000 -0.000000 0.000000 -1.880780 -8.848267 0.045828 -1.050875 -16.439800 20.619109 1.296783 -14.900328 -14.721474 0.000000 -0.000000 0.000000 2.617397 1.211195 15.879374 0.027479 1.026561 -1.093098 0.159874 0.748822 3.572233 -1.502176 8.103418 6.617078 -5.456120 7.051628 17.709081 -26.690418 4.582609 3.482697 -56.640526 -5.655255 7.329697 8.013110 -32.271052 6.946993 -6.047035 -4.581153 -6.520720 27.409193 3.715769 4.327543 53.233166 9.507978 12.263986 -12.537730 21.895290 -9.017834 4.037532 4.306009 -4.634715 
-1.205319 1.362531 0.991962 -40.987644 -2.341378 83.923837 -2.998721 1.933878 0.820411 -3.204301 -2.007286 11.043227 3.619816 8.845718 -10.752213 0.000000 -0.000000 0.000000 -2.552333 -8.773135 -0.177754 -1.901852 -16.899217 23.665326 1.634666 -15.790267 -14.678084 0.000000 -0.000000 0.000000 2.616169 1.102742 15.931116 0.169103 0.868785 -0.976962 0.059965 0.605846 3.515622 -1.418250 7.659199 6.914781 -5.627158 6.798201 17.572307 -26.654005 4.369528 3.485432 -56.791593 -6.063320 7.641225 8.177402 -32.412710 7.510266 -6.928790 -4.984175 -7.034820 27.357858 3.697074 4.302800 52.573041 9.169306 12.004447 -13.017424 21.261615 -9.611672 4.287206 4.093176 -4.672623 
-1.204067 1.357263 0.991761 -37.440374 -2.561828 83.411110 -3.829104 0.633948 1.919404 -3.087882 -4.781478 10.049819 3.766085 8.462202 -10.804921 0.000000 -0.000000 0.000000 -3.196397 -8.425672 -0.647394 -2.611164 -17.181775 26.683258 2.269995 -16.674741 -14.848586 0.000000 -0.000000 0.000000 2.752938 1.211197 15.571238 0.125953 1.050149 -0.750915 -0.065410 0.378978 3.625386 -1.305622 7.399733 7.256518 -5.427625 6.506411 17.693091 -26.475318 3.952140 3.437400 -57.238830 -6.533847 8.098979 8.767890 -32.028200 7.139159 -7.052589 -4.984106 -7.649318 27.279996 3.924766 4.196572 52.065246 8.838699 11.745391 -13.391377 20.090104 -10.687464 4.354626 3.969579 -5.068056 
